<?xml version="1.0" encoding="UTF-8"?>
<svg width="41px" height="40px" viewBox="0 0 41 40" version="1.1" xmlns="http://www.w3.org/2000/svg" xmlns:xlink="http://www.w3.org/1999/xlink">
    <title>share-prototypes</title>
    <defs>
        <path d="M37.9213049,26.9724089 C37.9213049,29.2764957 36.0311846,31.2072123 33.7803544,31.2072123 L23.6554385,31.2072123 L15.7823421,38.7345284 C15.1042074,39.3437113 13.504498,38.8327837 13.5093074,37.9288349 L13.504498,31.2072123 L5.95660245,31.2072123 C3.68653436,31.2072123 1.81565197,29.2961467 1.81565197,26.9724089 L1.81565197,6.22989068 C1.81565197,3.90615282 3.68172489,2 5.95660245,2 L33.7803544,2 C36.045613,2 37.9213049,3.91106559 37.9213049,6.22989068 L37.9213049,26.9724089 Z M28.0599787,16.3481441 C28.0599787,17.3061332 27.2952736,18.0872629 26.3574277,18.0872629 C25.4147723,18.0872629 24.6548766,17.3061332 24.6548766,16.3481441 C24.6548766,15.3852421 25.4147723,14.6041125 26.3574277,14.6041125 C27.2952736,14.6041125 28.0599787,15.3852421 28.0599787,16.3481441 Z M19.8288099,14.6041125 C20.7666558,14.6041125 21.5313609,15.3852421 21.5313609,16.3481441 C21.5313609,17.3061332 20.7666558,18.0872629 19.8288099,18.0872629 C18.8861545,18.0872629 18.1262588,17.3061332 18.1262588,16.3481441 C18.1262588,15.3852421 18.8861545,14.6041125 19.8288099,14.6041125 Z M13.3001921,14.6041125 C14.238038,14.6041125 15.0027431,15.3852421 15.0027431,16.3481441 C15.0027431,17.3061332 14.238038,18.0872629 13.3001921,18.0872629 C12.3575367,18.0872629 11.5928315,17.3061332 11.5928315,16.3481441 C11.5928315,15.3852421 12.3575367,14.6041125 13.3001921,14.6041125 Z M35.9468968,27.2310438 L35.9468968,6.22989068 C35.9468968,5.09012919 35.0138604,4.14196555 33.9028736,4.14196555 L5.81391407,4.14196555 C4.69330842,4.14196555 3.76989089,5.08030366 3.76989089,6.22989068 L3.76989089,27.2310438 C3.76989089,28.375718 4.69330842,29.3189689 5.81391407,29.3189689 L14.3987673,29.3189689 C14.9759032,29.3189689 15.4472309,29.8004199 15.4472309,30.3899517 L15.4472309,36.0669427 L22.5396423,29.6137348 C22.7272115,29.4319625 22.9821132,29.3189689 23.2610622,29.3189689 L33.9028736,29.3189689 C34.999432,29.3189689 35.9468968,28.356067 35.9468968,27.2310438 Z" id="path-1"></path>
    </defs>
    <g id="Page-1" stroke="none" stroke-width="1" fill="none" fill-rule="evenodd">
        <mask id="mask-2" fill="white">
            <use xlink:href="#path-1"></use>
        </mask>
        <use id="all-comments" fill="#121212" fill-rule="nonzero" xlink:href="#path-1"></use>
        <g id="SLICES" mask="url(#mask-2)">
            <g transform="translate(-149.822440, 0.000000)"></g>
        </g>
    </g>
</svg>